<svg xmlns="http://www.w3.org/2000/svg" xmlns:xlink="http://www.w3.org/1999/xlink" width="40" height="48" viewBox="0 0 40 48" fill="none">
<g  clip-path="url(#clip-path-8EB225D0-95DE-4917-83DC-C9D06AA30BF4)">
<path   fill="rgba(78, 89, 105, 1)"  d="M20 33.9786L20 14.0213L22 14.0213L20 14.0213C20 12.3172 21.9875 11.3862 23.2967 12.4771L23.2968 12.4772L35.2711 22.4559L33.9908 23.9923L35.2711 22.4559C36.2354 23.2594 36.2354 24.7406 35.271 25.5442L33.9908 24.0077L35.2711 25.5441L23.2968 35.5228L22.0164 33.9863L23.2968 35.5227C21.9877 36.6137 20 35.6829 20 33.9786L22 33.9786L20 33.9786ZM24 33.9786L24 33.9786C24 32.2913 22.032 31.3698 20.736 32.4499L20.736 32.4499L32.7104 22.4712L32.7105 22.4711C31.7557 23.2668 31.7557 24.7332 32.7104 25.5288L32.7104 25.5288L20.736 15.5501L22.0164 14.0137L20.7361 15.5502C22.0323 16.6302 24 15.7085 24 14.0213L24 14.0213L24 33.9786Z">
</path>
<path d="M22 34L22 14L34 24L22 34Z"   fill="#4E5969" >
</path>
<rect x="-2" y="26" width="4" height="26" transform="rotate(-89.99999499104388 -2 26)" stroke="rgba(78, 89, 105, 1)" stroke-width="4"   >
</rect>
<rect x="-2" y="26" width="4" height="26" transform="rotate(-89.99999499104388 -2 26)"   fill="#4E5969" >
</rect>
</g>
<defs>
<clipPath id="clip-path-8EB225D0-95DE-4917-83DC-C9D06AA30BF4">
<path d="M0 2.44929e-15L0 48L40 48L40 0L0 2.44929e-15Z" fill="white"/>
</clipPath>
</defs>
</svg>
