<svg xmlns="http://www.w3.org/2000/svg" xmlns:xlink="http://www.w3.org/1999/xlink" width="49" height="55.00523376464844" viewBox="0 0 49 55.00523376464844" fill="none">
<g filter="url(#filter_0_93)">
<path   fill-rule="evenodd"  fill="#7B3AEB"  d="M5 20.7374L5 19.962L5.01348 19.962C5.08956 17.7955 5.4875 15.8025 6.20732 13.9831C6.59214 13.0104 7.0647 12.1011 7.62499 11.2552C8.16926 10.4335 8.78954 9.68172 9.48582 8.99984C10.1616 8.33802 10.8991 7.7517 11.6982 7.24089C12.4756 6.74401 13.2982 6.32681 14.1662 5.98928C15.0156 5.65897 15.8928 5.41101 16.7978 5.24541C17.6917 5.08181 18.5952 5.00178 19.508 5.00535C20.4201 5.00891 21.3231 5.09585 22.2169 5.26617C23.1204 5.43833 23.9963 5.69226 24.8448 6.02795C25.7109 6.37059 26.532 6.79198 27.308 7.29211C28.1053 7.80596 28.8413 8.39413 29.516 9.05662C30.2111 9.73914 30.8306 10.4902 31.3743 11.3099C31.9343 12.1541 32.4067 13.0602 32.7915 14.0282C33.5967 16.0536 33.9995 18.2885 34 20.7329L34 40.0052L30.0274 40.0052L30.0274 20.7329C30.0269 18.7669 29.7128 16.9944 29.0851 15.4154C28.5208 13.9959 27.7225 12.7794 26.6903 11.7658C25.7292 10.8221 24.6141 10.0992 23.3449 9.59713C22.1156 9.1108 20.8313 8.86501 19.492 8.85977C18.1528 8.85455 16.8702 9.09032 15.6441 9.5671C14.3778 10.0595 13.2657 10.7747 12.3078 11.7127C11.2771 12.7221 10.4798 13.9393 9.91606 15.3644C9.28709 16.9542 8.9726 18.7452 8.9726 20.7374L8.9726 39.2343L5 39.2343L5 20.7374Z">
</path>
<path fill-rule="evenodd"  fill="rgba(123, 58, 235, 1)"  d="M5 39.2343L8.9726 39.2343L8.9726 20.7374Q8.9726 20.3445 8.98891 19.962Q9.09664 17.4356 9.91606 15.3644Q10.7617 13.2268 12.3078 11.7127Q13.7446 10.3057 15.6441 9.5671Q17.4832 8.85193 19.492 8.85977C20.8313 8.86501 22.1156 9.1108 23.3449 9.59713Q25.2486 10.3503 26.6903 11.7658C27.7225 12.7794 28.5208 13.9959 29.0851 15.4154Q30.0267 17.7839 30.0274 20.7329L30.0274 40.0052L34 40.0052L34 20.7329C33.9995 18.2885 33.5967 16.0536 32.7915 14.0282C32.4067 13.0602 31.9343 12.1541 31.3743 11.3099C30.8306 10.4902 30.2111 9.73914 29.516 9.05662Q28.504 8.06289 27.308 7.29211C26.532 6.79198 25.7109 6.37059 24.8448 6.02795Q23.5721 5.52441 22.2169 5.26617Q20.8762 5.01069 19.508 5.00535Q18.1387 5 16.7978 5.24541Q15.4404 5.49381 14.1662 5.98928Q12.8642 6.49557 11.6982 7.24089Q10.4996 8.00711 9.48582 8.99984Q8.4414 10.0227 7.62499 11.2552Q6.78455 12.524 6.20732 13.9831Q5.12759 16.7123 5.01348 19.962L5 19.962L5 39.2343Z">
</path>
</g>
<ellipse cx="14.732870101928711" cy="21.772130966186523" rx="2.979452133178711" ry="2.8908443450927734"   fill="#7B3AEB" >
</ellipse>
<ellipse cx="24.66438865661621" cy="21.772130966186523" rx="2.979452133178711" ry="2.8908443450927734"   fill="#7B3AEB" >
</ellipse>
<defs>
<filter id="filter_0_93" x="0" y="0" width="49" height="55.00523376464844" filterUnits="userSpaceOnUse" color-interpolation-filters="sRGB">
<feFlood flood-opacity="0" result="feFloodId_0_93"/>
<feColorMatrix in="SourceAlpha" type="matrix" values="0 0 0 0 0 0 0 0 0 0 0 0 0 0 0 0 0 0 127 0" result="hardAlpha_0_93"/>
<feOffset dx="5" dy="5"/>
<feGaussianBlur stdDeviation="5"/>
<feComposite in2="hardAlpha_0_93" operator="out"/>
<feColorMatrix type="matrix" values="0 0 0 0 0 0 0 0 0 0 0 0 0 0 0 0 0 0 0.15 0"/>
<feBlend mode="normal" in2="feFloodId_0_93" result="dropShadow_1_0_93"/>
<feBlend mode="normal" in="SourceGraphic" in2="dropShadow_1_0_93" result="shape_0_93"/>
</filter>
</defs>
</svg>
